<svg width="20" height="20" viewBox="0 0 20 20" fill="none" xmlns="http://www.w3.org/2000/svg">
<path d="M5.8275 10C5.8275 12.3009 7.69917 14.1725 10 14.1725C12.3008 14.1725 14.1725 12.3009 14.1725 10C14.1725 7.69919 12.3008 5.82752 10 5.82752C7.69917 5.82752 5.8275 7.69919 5.8275 10ZM10 7.49419C11.3817 7.49419 12.5058 8.61835 12.5058 10C12.5058 11.3817 11.3817 12.5059 10 12.5059C8.61833 12.5059 7.49417 11.3817 7.49417 10C7.49417 8.61835 8.61833 7.49419 10 7.49419ZM9.165 15.8334H10.8317V18.3334H9.165V15.8334ZM9.165 1.66669H10.8317V4.16669H9.165V1.66669ZM1.665 9.16669H4.165V10.8334H1.665V9.16669ZM15.8317 9.16669H18.3317V10.8334H15.8317V9.16669ZM3.51583 15.3025L5.2825 13.5342L6.46167 14.7125L4.695 16.4809L3.51583 15.3025ZM13.5333 5.28669L15.3017 3.51835L16.48 4.69669L14.7117 6.46502L13.5333 5.28669ZM5.285 6.46585L3.51667 4.69752L4.69583 3.51919L6.4625 5.28752L5.285 6.46585ZM16.48 15.3034L15.3017 16.4817L13.5333 14.7134L14.7117 13.535L16.48 15.3034Z" fill="#F3F2F2"/>
</svg>
